# xmcd
#
# Track frame offsets: 
#        150
#        19196
#        35942
#        53592
#        76327
#        92261
#        95413
#        99699
#        100970
#        121864
#        133314
#        147496
#        165330
#        179927
#        192802
#        204872
#        211291
#        217649
#        222610
#        235889
#        252743
#        264038
#        274584
#        295353
#        308870
#        319824
#
# Disc length: 4465 seconds
#
# Revision: 0
# Processed by: cddbd v1.5.2PL0 Copyright (c) Steve Scherf et al.
# Submitted via: ExactAudioCopy v0.95b3
#
DISCID=82116f1a
DTITLE=Phil Spector  - Rare Masters CD 4  FLAC
DYEAR=1900
DGENRE=
TTITLE0=The Ronettes - Do I Love You? takes 1 and 2
TTITLE1=The Ronettes - Do I Love You? takes 1 and 2, with vocal
TTITLE2=The Ronettes - Do I Love You? takes 4 and 5
TTITLE3=The Ronettes - Do I Love You? takes 6-9
TTITLE4=The Ronettes - Do I Love You? take 1 insert
TTITLE5=The Ronettes - Do I Love You? vocal insert
TTITLE6=The Ronettes - Do I Love You? vocal insert
TTITLE7=The Ronettes - Do I Love You? vocal insert
TTITLE8=The Ronettes - Soldier Baby of Mine take 1, vocal
TTITLE9=The Ronettes - Soldier Baby of Mine vocal take
TTITLE10=Darlene Love - (Today I Met) The Boy I'm Gonna Marry take 1
TTITLE11=Darlene Love - (Today I Met) The Boy I'm Gonna Marry take 2
TTITLE12=Darlene Love - Wait Til My Bobby Gets Home take 19
TTITLE13=Darlene Love - Wait Til My Bobby Gets Home takes 20 and 21
TTITLE14=Darlene Love - Wait Til My Bobby Gets Home take 22
TTITLE15=The Crystals - Da Doo Ron Ron (Will You Walk Me Home) take 20
TTITLE15=23
TTITLE16=The Crystals - Da Doo Ron Ron (Will You Walk Me Home) take 21
TTITLE17=The Crystals - Da Doo Ron Ron (Will You Walk Me Home) take 22
TTITLE18=The Crystals - Da Doo Ron Ron (Will You Walk Me Home) take 24
TTITLE19=The Crystals - Da Doo Ron Ron (Will You Walk Me Home) takes 2
TTITLE19=5-27, with vocal
TTITLE20=The Crystals - Da Doo Ron Ron (Will You Walk Me Home) take 28
TTITLE21=The Crystals - Da Doo Ron Ron (Will You Walk Me Home) take 29
TTITLE22=The Righteous Brothers - You've Lost That Lovin' Feelin' take
TTITLE22=s 38 and 39
TTITLE23=The Righteous Brothers - You've Lost That Lovin' Feelin' seco
TTITLE23=nd track, take 1
TTITLE24=The Ronettes - Frosty the Snowman unknown take
TTITLE25=The Ronettes - Sleigh Ride take 2
EXTD=
EXTT0=
EXTT1=
EXTT2=
EXTT3=
EXTT4=
EXTT5=
EXTT6=
EXTT7=
EXTT8=
EXTT9=
EXTT10=
EXTT11=
EXTT12=
EXTT13=
EXTT14=
EXTT15=
EXTT16=
EXTT17=
EXTT18=
EXTT19=
EXTT20=
EXTT21=
EXTT22=
EXTT23=
EXTT24=
EXTT25=
PLAYORDER=
